HIERARCHY
ROOT Hips
{
	OFFSET 0.000000 103.266502 0.000000
	CHANNELS 6 Xposition Yposition Zposition Xrotation Yrotation Zrotation 
	JOINT Spine
	{
		OFFSET -0.002400 12.777504 0.315300
		CHANNELS 3 Xrotation Yrotation Zrotation
		JOINT Spine1
		{
			OFFSET -0.002067 5.816869 0.032633
			CHANNELS 3 Xrotation Yrotation Zrotation
			JOINT Spine1_split
			{
				OFFSET -0.002067 5.816869 0.032633
				CHANNELS 3 Xrotation Yrotation Zrotation
				JOINT Spine2
				{
					OFFSET -0.002067 5.816869 0.032633
					CHANNELS 3 Xrotation Yrotation Zrotation
					JOINT Neck
					{
						OFFSET -0.003700 21.199493 -0.826900
						CHANNELS 3 Xrotation Yrotation Zrotation
						JOINT Head
						{
							OFFSET 0.000000 20.442200 4.834800
							CHANNELS 3 Xrotation Yrotation Zrotation
							JOINT HeadTop_End
							{
								OFFSET 0.000000 34.668396 4.968400
								CHANNELS 3 Xrotation Yrotation Zrotation
								End Site
								{
									OFFSET 0.000000 0.000000 0.000000
								}
							}
						}
					}
					JOINT LeftShoulder
					{
						OFFSET 3.288150 8.794197 -1.372250
						CHANNELS 3 Xrotation Yrotation Zrotation
						JOINT LeftShoulder_split
						{
							OFFSET 3.288150 8.794197 -1.372250
							CHANNELS 3 Xrotation Yrotation Zrotation
							JOINT LeftArm
							{
								OFFSET 11.953299 -2.279007 -0.146200
								CHANNELS 3 Xrotation Yrotation Zrotation
								JOINT LeftForeArm
								{
									OFFSET 18.448900 0.000000 0.000000
									CHANNELS 3 Xrotation Yrotation Zrotation
									JOINT LeftHand
									{
										OFFSET 29.527798 0.000000 0.000000
										CHANNELS 3 Xrotation Yrotation Zrotation
										JOINT LeftHandThumb1
										{
											OFFSET 10.739754 -2.369614 9.225399
											CHANNELS 3 Xrotation Yrotation Zrotation
											JOINT LeftHandThumb2
											{
												OFFSET 4.926170 -2.844131 2.844125
												CHANNELS 3 Xrotation Yrotation Zrotation
												JOINT LeftHandThumb3
												{
													OFFSET 4.614891 -2.664413 2.664409
													CHANNELS 3 Xrotation Yrotation Zrotation
													JOINT LeftHandThumb4
													{
														OFFSET 4.432465 -2.559082 2.559083
														CHANNELS 3 Xrotation Yrotation Zrotation
														End Site
														{
															OFFSET 0.000000 0.000000 0.000000
														}
													}
												}
											}
										}
										JOINT LeftHandIndex1
										{
											OFFSET 26.467674 0.187653 6.405298
											CHANNELS 3 Xrotation Yrotation Zrotation
											JOINT LeftHandIndex2
											{
												OFFSET 8.792900 0.000000 0.000000
												CHANNELS 3 Xrotation Yrotation Zrotation
												JOINT LeftHandIndex3
												{
													OFFSET 10.075203 0.000000 0.000000
													CHANNELS 3 Xrotation Yrotation Zrotation
													End Site
													{
														OFFSET 0.000000 0.000000 0.000000
													}
												}
											}
										}
										JOINT LeftHandMiddle1
										{
											OFFSET 25.764404 0.000000 0.000000
											CHANNELS 3 Xrotation Yrotation Zrotation
											JOINT LeftHandMiddle2
											{
												OFFSET 9.393974 0.000000 0.000000
												CHANNELS 3 Xrotation Yrotation Zrotation
												JOINT LeftHandMiddle3
												{
													OFFSET 10.771950 0.000000 0.000000
													CHANNELS 3 Xrotation Yrotation Zrotation
													End Site
													{
														OFFSET 0.000000 0.000000 0.000000
													}
												}
											}
										}
										JOINT LeftHandRing1
										{
											OFFSET 24.660927 0.144547 -6.225808
											CHANNELS 3 Xrotation Yrotation Zrotation
											JOINT LeftHandRing2
											{
												OFFSET 9.393799 0.000000 0.000000
												CHANNELS 3 Xrotation Yrotation Zrotation
												JOINT LeftHandRing3
												{
													OFFSET 9.928497 0.000000 0.000000
													CHANNELS 3 Xrotation Yrotation Zrotation
													End Site
													{
														OFFSET 0.000000 0.000000 0.000000
													}
												}
											}
										}
										JOINT LeftHandPinky1
										{
											OFFSET 23.655350 0.125290 -12.815412
											CHANNELS 3 Xrotation Yrotation Zrotation
											JOINT LeftHandPinky2
											{
												OFFSET 8.425102 0.000000 0.000000
												CHANNELS 3 Xrotation Yrotation Zrotation
												JOINT LeftHandPinky3
												{
													OFFSET 8.147003 0.000000 0.000000
													CHANNELS 3 Xrotation Yrotation Zrotation
													End Site
													{
														OFFSET 0.000000 0.000000 0.000000
													}
												}
											}
										}
									}
								}
							}
						}
					}
					JOINT RightShoulder
					{
						OFFSET -3.249400 8.794197 -1.372250
						CHANNELS 3 Xrotation Yrotation Zrotation
						JOINT RightShoulder_split
						{
							OFFSET -3.249400 8.794197 -1.372250
							CHANNELS 3 Xrotation Yrotation Zrotation
							JOINT RightArm
							{
								OFFSET -11.953299 -2.279007 -0.146200
								CHANNELS 3 Xrotation Yrotation Zrotation
								JOINT RightForeArm
								{
									OFFSET -18.448900 0.000000 0.000000
									CHANNELS 3 Xrotation Yrotation Zrotation
									JOINT RightHand
									{
										OFFSET -29.527802 0.000000 0.000000
										CHANNELS 3 Xrotation Yrotation Zrotation
										JOINT RightHandThumb1
										{
											OFFSET -10.739754 -2.369614 9.225399
											CHANNELS 3 Xrotation Yrotation Zrotation
											JOINT RightHandThumb2
											{
												OFFSET -4.926170 -2.844131 2.844125
												CHANNELS 3 Xrotation Yrotation Zrotation
												JOINT RightHandThumb3
												{
													OFFSET -4.614891 -2.664413 2.664409
													CHANNELS 3 Xrotation Yrotation Zrotation
													JOINT RightHandThumb4
													{
														OFFSET -4.432465 -2.559082 2.559083
														CHANNELS 3 Xrotation Yrotation Zrotation
														End Site
														{
															OFFSET 0.000000 0.000000 0.000000
														}
													}
												}
											}
										}
										JOINT RightHandIndex1
										{
											OFFSET -26.467674 0.187653 6.405298
											CHANNELS 3 Xrotation Yrotation Zrotation
											JOINT RightHandIndex2
											{
												OFFSET -8.792900 0.000000 0.000000
												CHANNELS 3 Xrotation Yrotation Zrotation
												JOINT RightHandIndex3
												{
													OFFSET -10.075203 0.000000 0.000000
													CHANNELS 3 Xrotation Yrotation Zrotation
													End Site
													{
														OFFSET 0.000000 0.000000 0.000000
													}
												}
											}
										}
										JOINT RightHandMiddle1
										{
											OFFSET -25.764404 0.000000 0.000000
											CHANNELS 3 Xrotation Yrotation Zrotation
											JOINT RightHandMiddle2
											{
												OFFSET -9.393974 0.000000 0.000000
												CHANNELS 3 Xrotation Yrotation Zrotation
												JOINT RightHandMiddle3
												{
													OFFSET -10.771950 0.000000 0.000000
													CHANNELS 3 Xrotation Yrotation Zrotation
													End Site
													{
														OFFSET 0.000000 0.000000 0.000000
													}
												}
											}
										}
										JOINT RightHandRing1
										{
											OFFSET -24.660927 0.144547 -6.225808
											CHANNELS 3 Xrotation Yrotation Zrotation
											JOINT RightHandRing2
											{
												OFFSET -9.393799 0.000000 0.000000
												CHANNELS 3 Xrotation Yrotation Zrotation
												JOINT RightHandRing3
												{
													OFFSET -9.928497 0.000000 0.000000
													CHANNELS 3 Xrotation Yrotation Zrotation
													End Site
													{
														OFFSET 0.000000 0.000000 0.000000
													}
												}
											}
										}
										JOINT RightHandPinky1
										{
											OFFSET -23.655350 0.125290 -12.815412
											CHANNELS 3 Xrotation Yrotation Zrotation
											JOINT RightHandPinky2
											{
												OFFSET -8.425102 0.000000 0.000000
												CHANNELS 3 Xrotation Yrotation Zrotation
												JOINT RightHandPinky3
												{
													OFFSET -8.147003 0.000000 0.000000
													CHANNELS 3 Xrotation Yrotation Zrotation
													End Site
													{
														OFFSET 0.000000 0.000000 0.000000
													}
												}
											}
										}
									}
								}
							}
						}
					}
				}
			}
		}
	}
	JOINT LeftUpLeg
	{
		OFFSET 11.394100 -6.187798 -0.413800
		CHANNELS 3 Xrotation Yrotation Zrotation
		JOINT LeftLeg
		{
			OFFSET 0.430247 -32.302673 3.732800
			CHANNELS 3 Xrotation Yrotation Zrotation
			JOINT LeftFoot
			{
				OFFSET -0.430247 -48.264931 -6.423300
				CHANNELS 3 Xrotation Yrotation Zrotation
				JOINT LeftToeBase
				{
					OFFSET 4.230900 -16.068199 23.438400
					CHANNELS 3 Xrotation Yrotation Zrotation
					JOINT LeftToe_End
					{
						OFFSET 4.510700 0.695400 19.974600
						CHANNELS 3 Xrotation Yrotation Zrotation
						End Site
						{
							OFFSET 0.000000 0.000000 0.000000
						}
					}
				}
			}
		}
	}
	JOINT RightUpLeg
	{
		OFFSET -11.333700 -6.187798 -0.413800
		CHANNELS 3 Xrotation Yrotation Zrotation
		JOINT RightLeg
		{
			OFFSET -0.430392 -32.302628 3.733000
			CHANNELS 3 Xrotation Yrotation Zrotation
			JOINT RightFoot
			{
				OFFSET 0.430392 -48.264973 -6.423500
				CHANNELS 3 Xrotation Yrotation Zrotation
				JOINT RightToeBase
				{
					OFFSET -4.230900 -16.068199 23.438400
					CHANNELS 3 Xrotation Yrotation Zrotation
					JOINT RightToe_End
					{
						OFFSET -4.510700 0.695400 19.974600
						CHANNELS 3 Xrotation Yrotation Zrotation
						End Site
						{
							OFFSET 0.000000 0.000000 0.000000
						}
					}
				}
			}
		}
	}
}
MOTION
Frames: 5
Frame Time: 0.016667
-4.463948 91.539978 -4.273671 -3.138630 -6.451235 5.164724 13.731645 0.284974 -4.230223 2.722912 0.133859 -0.943517 0.000000 0.000000 0.000000 2.720025 0.135223 -0.952573 2.743908 0.369061 0.041968 21.918277 4.192716 -0.129341 -0.000002 0.000000 0.000000 0.619249 -1.200853 -10.994810 0.000000 0.000000 0.000000 17.248868 -24.148530 -54.371577 -0.000005 -28.855370 -0.000008 24.205861 -0.057591 -1.453793 -13.734203 9.516291 2.120169 12.920928 20.445748 20.805449 1.615732 -13.628057 26.911956 -0.000001 -0.000002 0.000002 0.624770 4.843186 -25.352346 0.379504 2.075989 -20.715400 -0.000000 0.000000 -0.000003 0.442362 4.431066 -20.811035 0.385152 2.090960 -20.871754 0.000000 0.000002 -0.000003 0.553767 4.704282 -23.698197 0.384473 2.089160 -20.852955 -0.000000 0.000002 -0.000002 0.677173 4.972452 -26.586885 0.385152 2.090934 -20.871736 -0.000003 0.000003 -0.000003 0.265365 6.336857 17.304033 0.000000 0.000000 0.000000 14.561910 17.232537 47.386053 0.000009 42.148995 0.000008 24.497974 9.178846 9.204413 -13.230997 -9.083820 -4.233060 14.743221 -13.848454 -17.282880 3.139536 -1.609821 -20.186482 -0.000002 -0.000002 0.000001 0.733524 -4.698519 31.512386 0.755286 -2.544507 33.060130 -0.000002 -0.000001 0.000002 0.728922 -4.705634 31.511354 0.755283 -2.544505 33.059898 0.000000 0.000002 0.000001 0.816096 -4.842847 33.512012 0.711553 -2.476073 32.061284 -0.000003 0.000001 0.000002 0.908011 -4.976941 35.513326 0.755273 -2.544495 33.059926 0.000001 0.000003 0.000001 -69.287331 4.570821 8.089188 55.214867 -0.780972 -5.048498 5.330374 -0.006458 -1.165447 -1.242527 -0.000001 -0.000001 0.000001 -0.000000 0.000000 -27.155900 -6.318349 -7.568382 52.899002 7.567982 3.489045 -22.594337 2.713253 -8.316921 -5.454417 -0.000000 -0.000003 -0.000000 -0.000001 -0.000000 
-4.533020 91.353828 -4.409875 -3.025519 -6.408383 5.155404 13.851071 0.367843 -4.064980 2.787336 0.158803 -0.935779 0.000000 0.000000 0.000000 2.784216 0.161848 -0.946242 2.763237 0.364234 0.009163 21.835053 4.220365 -0.349117 -0.000002 0.000000 0.000000 0.629837 -1.288738 -11.002614 0.000000 0.000000 0.000000 17.403957 -24.407258 -54.849209 0.000003 -28.505427 -0.000001 25.130400 -0.221138 -1.029088 -13.734150 9.516086 2.120209 12.920899 20.445901 20.805390 1.615769 -13.628005 26.911907 -0.000000 0.000001 -0.000001 0.626803 4.847511 -25.401771 0.414670 2.166694 -21.665867 0.000002 0.000002 -0.000003 0.439032 4.422243 -20.716744 0.416235 2.170634 -21.707572 -0.000001 -0.000001 0.000003 0.551162 4.698285 -23.632074 0.415322 2.168375 -21.683643 -0.000001 0.000002 0.000002 0.675542 4.969153 -26.548973 0.416240 2.170650 -21.707559 -0.000004 -0.000000 -0.000003 0.222709 6.699102 17.382114 0.000000 0.000000 0.000000 14.920437 17.286565 46.635982 0.000006 43.116030 -0.000011 24.299868 9.494713 9.224549 -13.085052 -9.143581 -3.844986 14.660629 -13.964668 -17.694030 3.136757 -1.610398 -20.186225 -0.000001 -0.000000 -0.000000 0.754216 -4.732102 32.001499 0.777130 -2.577734 33.548865 0.000001 -0.000002 0.000001 0.749946 -4.739708 32.000533 0.777122 -2.577702 33.548694 0.000000 -0.000001 0.000001 0.838285 -4.876163 34.001351 0.732800 -2.509656 32.550014 -0.000001 0.000000 0.000002 0.931367 -5.009469 36.002808 0.777124 -2.577704 33.548704 -0.000001 0.000000 0.000000 -68.204623 4.310690 7.412350 50.685143 -0.979107 -4.774359 7.756750 0.049480 0.129521 -0.940470 0.000001 -0.000001 -0.000001 -0.000000 -0.000000 -27.677849 -6.352138 -7.514374 53.391848 7.573032 3.476180 -22.670668 2.706515 -8.421173 -5.455709 0.000004 -0.000000 0.000000 -0.000000 -0.000000 
-4.597654 91.187492 -4.573530 -2.850594 -6.461202 5.086015 13.967117 0.464111 -3.868854 2.847391 0.187924 -0.917954 0.000000 0.000000 0.000000 2.844045 0.192474 -0.929923 2.777816 0.367202 -0.028368 21.720485 4.314693 -0.576000 -0.000001 0.000000 0.000000 0.640724 -1.333958 -11.005095 0.000000 0.000000 0.000000 17.374236 -24.472986 -55.481633 0.000000 -28.210932 -0.000001 25.772452 -0.259544 -0.556241 -13.734061 9.515817 2.120260 12.920883 20.446108 20.805265 1.615843 -13.627904 26.911855 0.000000 -0.000001 0.000001 0.627454 4.848883 -25.418667 0.447876 2.248446 -22.528199 0.000001 -0.000002 0.000000 0.435054 4.411622 -20.603348 0.446250 2.244515 -22.486750 0.000001 -0.000000 0.000004 0.547666 4.690278 -23.544195 0.445573 2.242866 -22.469483 0.000000 0.000001 -0.000002 0.672798 4.963667 -26.486661 0.446247 2.244523 -22.486748 -0.000001 0.000000 -0.000004 0.180821 7.065461 17.444805 0.000000 0.000000 0.000000 15.301579 17.417505 45.815034 0.000007 44.069518 0.000013 24.288084 9.779410 9.317246 -12.936540 -9.203464 -3.451731 14.577126 -14.082829 -18.110745 3.133931 -1.611110 -20.185972 -0.000000 0.000001 -0.000001 0.772984 -4.762074 32.439813 0.796948 -2.607338 33.987055 -0.000001 -0.000003 -0.000004 0.769068 -4.770140 32.438986 0.796937 -2.607327 33.986973 0.000000 -0.000001 0.000004 0.858440 -4.905903 34.439931 0.752106 -2.539613 32.988260 -0.000001 -0.000001 0.000001 0.952563 -5.038488 36.441501 0.796939 -2.607323 33.986987 -0.000000 0.000002 0.000001 -67.030882 4.001619 6.834631 46.204232 -1.763029 -4.405132 10.719751 0.149878 1.533254 -0.917273 0.000001 -0.000001 0.000000 -0.000000 -0.000000 -28.249287 -6.426364 -7.397527 53.803644 7.681613 3.464713 -22.661799 2.700030 -8.572486 -5.451048 0.000004 -0.000001 -0.000000 0.000000 0.000000 
-4.666845 91.068817 -4.779100 -2.590461 -6.551397 5.008080 14.085849 0.558198 -3.703024 2.901650 0.218670 -0.897720 0.000000 0.000000 0.000000 2.898105 0.224245 -0.911136 2.785687 0.373450 -0.062493 21.560414 4.426316 -0.753392 0.000002 -0.000000 -0.000000 0.651117 -1.376266 -11.000298 0.000000 0.000000 0.000000 17.231042 -24.456445 -56.127629 0.000016 -27.965513 0.000013 26.138104 -0.195733 -0.169273 -13.733982 9.515504 2.120331 12.920862 20.446340 20.805118 1.615919 -13.627789 26.911768 -0.000002 -0.000002 0.000001 0.626472 4.846820 -25.397584 0.478100 2.319896 -23.286464 0.000000 -0.000001 -0.000000 0.430240 4.398737 -20.466167 0.475165 2.313099 -23.214107 -0.000000 0.000002 -0.000000 0.543125 4.679807 -23.429767 0.474908 2.312465 -23.207618 -0.000001 -0.000000 0.000001 0.668759 4.955532 -26.394972 0.475157 2.313096 -23.214090 -0.000001 0.000002 -0.000003 0.141483 7.412043 17.493919 0.000000 0.000000 0.000000 15.609451 17.553248 45.040293 0.000008 44.952648 -0.000010 24.556092 10.030615 9.405979 -12.785924 -9.263297 -3.054564 14.492987 -14.202484 -18.531611 3.131083 -1.611867 -20.185683 0.000001 -0.000002 0.000002 0.789437 -4.787888 32.818987 0.814285 -2.632837 34.366322 -0.000002 -0.000001 -0.000003 0.785833 -4.796412 32.818318 0.814271 -2.632828 34.366360 -0.000002 -0.000001 -0.000003 0.876136 -4.931585 34.819369 0.768989 -2.565430 33.367598 -0.000002 -0.000002 -0.000002 0.971155 -5.063526 36.821058 0.814284 -2.632836 34.366343 -0.000001 -0.000002 -0.000003 -66.117952 3.587328 6.569097 42.834548 -1.762005 -4.011239 12.712979 0.146543 1.680192 -0.587582 0.000002 -0.000002 0.000000 -0.000000 -0.000000 -28.872098 -6.521879 -7.250441 54.085478 7.832412 3.456136 -22.549876 2.687736 -8.748488 -5.444800 -0.000001 -0.000000 -0.000001 0.000000 -0.000000 
-4.752316 91.041451 -5.040686 -2.217193 -6.608457 4.979547 14.207920 0.620891 -3.623173 2.948585 0.244173 -0.882540 0.000000 0.000000 0.000000 2.944868 0.250126 -0.897077 2.784119 0.379460 -0.086376 21.333138 4.511396 -0.839697 -0.000000 0.000000 -0.000000 0.660197 -1.456143 -10.992151 0.000000 0.000000 0.000000 17.052645 -24.459751 -56.653291 -0.000008 -27.764820 -0.000001 26.287793 -0.072834 0.052191 -13.733869 9.515053 2.120394 12.920834 20.446595 20.804942 1.615963 -13.627678 26.911726 0.000002 0.000001 -0.000001 0.623622 4.840739 -25.332989 0.505094 2.381596 -23.944688 -0.000002 -0.000000 -0.000002 0.424471 4.383142 -20.300325 0.502568 2.375917 -23.883841 -0.000002 0.000002 -0.000002 0.537364 4.666392 -23.283731 0.502668 2.376141 -23.886263 -0.000001 -0.000000 -0.000004 0.663185 4.944266 -26.268759 0.502571 2.375890 -23.883845 -0.000001 -0.000000 -0.000003 0.106660 7.709673 17.533394 0.000000 0.000000 0.000000 15.764225 17.647322 44.412964 -0.000000 45.711806 -0.000000 25.094065 10.265062 9.408115 -12.633710 -9.322834 -2.654777 14.408533 -14.323268 -18.955331 3.128214 -1.612606 -20.185340 0.000002 -0.000001 -0.000002 0.803055 -4.809000 33.130458 0.828648 -2.653704 34.677950 -0.000001 0.000001 0.000001 0.799797 -4.817977 33.129959 0.828667 -2.653718 34.678120 0.000001 0.000000 -0.000000 0.890841 -4.952654 35.131078 0.783003 -2.586551 33.679362 -0.000001 -0.000001 0.000003 0.986587 -5.084062 37.132836 0.828666 -2.653724 34.678120 0.000000 0.000001 -0.000004 -65.459017 3.237819 6.439816 40.393090 -1.529633 -3.682592 13.584698 0.075609 1.268673 0.141997 0.000000 0.000000 0.000000 0.000000 -0.000000 -29.527939 -6.617721 -7.107430 54.150040 7.951405 3.450046 -22.306044 2.662758 -8.917620 -5.440134 0.000001 -0.000002 -0.000000 -0.000000 -0.000000 
